# xmcd
#
# Track frame offsets:
# 150
# 21723
# 44569
# 52412
# 73323
# 85872
# 97821
# 115037
# 135219
# 146328
# 164898
# 187443
# 205311
# 226921
# 244464
#
# Disc length: 3356 seconds
#
# Revision: 0
# Processed by: cddbd v1.5.2PL0 Copyright (c) Steve Scherf et al.
# Submitted via: Audion 3.0.2 (http://www.panic.com/audion/)
#
DISCID=ea0d1a0f
DTITLE=dlkas - asdfsdf
DYEAR=1900
DGENRE=
TTITLE0=adf
TTITLE1=safd
TTITLE2=sadfasdf
TTITLE3=df
TTITLE4=sdfsadfas
TTITLE5=sdfasdfsa
TTITLE6=sdfasdf
TTITLE7=sdfsadf
TTITLE8=sdaf
TTITLE9=sadf
TTITLE10=paper
TTITLE11=sdf
TTITLE12=f
TTITLE13=adf
TTITLE14=adf
EXTD=
EXTT0=
EXTT1=
EXTT2=
EXTT3=
EXTT4=
EXTT5=
EXTT6=
EXTT7=
EXTT8=
EXTT9=
EXTT10=
EXTT11=
EXTT12=
EXTT13=
EXTT14=
PLAYORDER=
